<?xml version="1.0" encoding="UTF-8" standalone="no"?>
<!-- Generator: Adobe Illustrator 24.3.0, SVG Export Plug-In . SVG Version: 6.00 Build 0)  -->
<svg xmlns:inkscape="http://www.inkscape.org/namespaces/inkscape" xmlns:sodipodi="http://sodipodi.sourceforge.net/DTD/sodipodi-0.dtd" xmlns="http://www.w3.org/2000/svg" xmlns:svg="http://www.w3.org/2000/svg" version="1.1" id="Layer_1" x="0px" y="0px" viewBox="0 0 566.929 566.929" xml:space="preserve" sodipodi:docname="ReqonicLogoWhite-BlueBackground.svg" inkscape:version="1.4.2 (f4327f4, 2025-05-13)" width="566.92902" height="566.92902" style="background-color:transparent;"><defs id="defs38"/><sodipodi:namedview id="namedview38" pagecolor="#ffffff" bordercolor="#000000" borderopacity="0.25" inkscape:showpageshadow="2" inkscape:pageopacity="0.0" inkscape:pagecheckerboard="0" inkscape:deskcolor="#d1d1d1" inkscape:zoom="1.3634864" inkscape:cx="284.56463" inkscape:cy="279.79744" inkscape:window-width="1920" inkscape:window-height="991" inkscape:window-x="-9" inkscape:window-y="-9" inkscape:window-maximized="1" inkscape:current-layer="layer1"/>
<style type="text/css" id="style1">
	.st0{fill:#011A48;}
</style>
<g inkscape:groupmode="layer" id="layer1" inkscape:label="Background"><rect style="fill:none;stroke:#1c2443;stroke-width:0;stroke-linecap:square;fill-opacity:1;stroke-opacity:1;stroke-dasharray:none" id="rect1" width="566.92902" height="566.92902" x="0" y="0" fill="none"/></g><g id="g38" transform="translate(8.0566406e-6,17.763008)" style="fill:none;fill-opacity:1">
	
	<g id="g21" style="fill:none;fill-opacity:1">
		<path class="st0" d="m 220.189,158.144 c 0,-2.096 -1.699,-3.795 -3.795,-3.795 -2.096,0 -3.795,1.699 -3.795,3.795 0,1.805 1.263,3.309 2.952,3.694 V 298.07 c -1.689,0.384 -2.952,1.888 -2.952,3.694 0,2.096 1.699,3.795 3.795,3.795 2.096,0 3.795,-1.699 3.795,-3.795 0,-1.805 -1.263,-3.31 -2.952,-3.694 V 161.838 c 1.688,-0.384 2.952,-1.888 2.952,-3.694 z" id="path12" style="fill:none;fill-opacity:1"/>
		<path class="st0" d="m 230.67,161.939 c 1.78,0 3.262,-1.23 3.672,-2.883 l 22.926,-0.14 c 1.718,-0.011 3.444,-0.033 5.176,-0.055 10.314,-0.133 20.977,-0.271 31.025,2.133 1.545,0.37 3.075,0.797 4.548,1.271 18.87,6.067 32.196,21.255 33.948,38.692 0.023,0.228 0.038,0.457 0.053,0.687 -1.474,0.521 -2.537,1.912 -2.537,3.565 0,2.096 1.699,3.795 3.795,3.795 2.096,0 3.795,-1.699 3.795,-3.795 0,-1.953 -1.481,-3.543 -3.378,-3.753 -0.016,-0.222 -0.029,-0.445 -0.051,-0.667 -1.82,-18.105 -15.602,-33.856 -35.111,-40.129 -1.513,-0.486 -3.084,-0.926 -4.67,-1.306 -10.252,-2.453 -21.023,-2.312 -31.439,-2.179 -1.728,0.022 -3.451,0.044 -5.164,0.055 l -22.872,0.14 c -0.357,-1.725 -1.885,-3.021 -3.715,-3.021 -2.096,0 -3.795,1.699 -3.795,3.795 -0.001,2.096 1.698,3.795 3.794,3.795 z" id="path13" style="fill:none;fill-opacity:1"/>
		<path class="st0" d="m 240.971,229.063 c 1.508,0 2.799,-0.886 3.412,-2.161 h 36.551 c 9.592,0 17.396,-7.804 17.396,-17.396 0,-9.592 -7.803,-17.396 -17.396,-17.396 h -20.536 c -0.261,-1.841 -1.828,-3.262 -3.741,-3.262 -2.096,0 -3.795,1.699 -3.795,3.795 0,2.096 1.699,3.795 3.795,3.795 1.691,0 3.107,-1.114 3.598,-2.643 h 20.68 c 8.662,0 15.71,7.047 15.71,15.71 0,8.663 -7.048,15.71 -15.71,15.71 h -36.173 c -0.028,-2.072 -1.711,-3.744 -3.79,-3.744 -2.096,0 -3.795,1.699 -3.795,3.795 0,2.096 1.698,3.797 3.794,3.797 z" id="path14" style="fill:none;fill-opacity:1"/>
		<path class="st0" d="m 263.673,240.836 c 1.805,0 3.31,-1.263 3.694,-2.953 h 15.256 c 15.616,0 23.688,-15.55 25.972,-20.809 2.047,-0.056 3.692,-1.724 3.692,-3.785 0,-2.096 -1.699,-3.795 -3.795,-3.795 -2.096,0 -3.795,1.699 -3.795,3.795 0,1.53 0.91,2.84 2.214,3.44 -2.324,5.253 -9.939,19.468 -24.287,19.468 h -15.256 c -0.384,-1.689 -1.888,-2.952 -3.694,-2.952 -2.096,0 -3.795,1.699 -3.795,3.795 -0.001,2.097 1.698,3.796 3.794,3.796 z" id="path15" style="fill:none;fill-opacity:1"/>
		<path class="st0" d="m 296.047,190.656 c 2.096,0 3.795,-1.699 3.795,-3.795 0,-2.096 -1.699,-3.795 -3.795,-3.795 -1.019,0 -1.94,0.407 -2.621,1.06 -4.674,-3.111 -15.548,-3.341 -16.035,-3.349 h -37.262 v 8.173 c -1.689,0.384 -2.953,1.889 -2.953,3.694 0,2.096 1.699,3.795 3.795,3.795 2.096,0 3.795,-1.699 3.795,-3.795 0,-1.805 -1.263,-3.309 -2.952,-3.694 v -6.487 h 35.561 c 0.111,0.002 10.909,0.23 15.127,3.075 -0.155,0.413 -0.25,0.856 -0.25,1.323 0,2.096 1.699,3.795 3.795,3.795 z" id="path16" style="fill:none;fill-opacity:1"/>
		<path class="st0" d="m 304.919,291.437 c 0,2.096 1.699,3.795 3.795,3.795 2.096,0 3.795,-1.699 3.795,-3.795 0,-2.096 -1.699,-3.795 -3.795,-3.795 -0.693,0 -1.334,0.199 -1.893,0.524 l -34.552,-40.333 h -27.605 c -0.384,-1.689 -1.889,-2.952 -3.694,-2.952 -2.096,0 -3.795,1.699 -3.795,3.795 0,2.096 1.699,3.795 3.795,3.795 1.805,0 3.31,-1.263 3.694,-2.952 h 26.83 l 34.082,39.785 c -0.413,0.608 -0.657,1.341 -0.657,2.133 z" id="path17" style="fill:none;fill-opacity:1"/>
		<path class="st0" d="m 240.971,260.517 c -2.096,0 -3.795,1.699 -3.795,3.795 0,1.805 1.264,3.31 2.953,3.694 v 25.563 H 228.803 V 170.186 h 8.475 c 0.384,1.689 1.889,2.952 3.694,2.952 2.096,0 3.795,-1.699 3.795,-3.795 0,-2.096 -1.699,-3.795 -3.795,-3.795 -1.805,0 -3.31,1.263 -3.694,2.952 h -10.16 v 126.754 h 14.697 v -27.249 c 1.689,-0.384 2.952,-1.888 2.952,-3.694 -0.001,-2.095 -1.7,-3.794 -3.796,-3.794 z" id="path18" style="fill:none;fill-opacity:1"/>
		<path class="st0" d="m 263.036,256.63 c -1.805,0 -3.31,1.263 -3.694,2.953 h -7.648 v 38.487 c -1.689,0.384 -2.952,1.888 -2.952,3.694 0,2.096 1.699,3.795 3.795,3.795 2.096,0 3.795,-1.699 3.795,-3.795 0,-1.805 -1.263,-3.31 -2.952,-3.694 v -36.802 h 5.962 c 0.384,1.689 1.888,2.952 3.694,2.952 2.096,0 3.795,-1.699 3.795,-3.795 0,-2.096 -1.699,-3.795 -3.795,-3.795 z" id="path19" style="fill:none;fill-opacity:1"/>
		<path class="st0" d="m 313.132,258.283 c 0.37,-0.586 0.591,-1.274 0.591,-2.017 0,-2.096 -1.699,-3.795 -3.795,-3.795 -2.096,0 -3.795,1.699 -3.795,3.795 0,2.096 1.699,3.795 3.795,3.795 0.739,0 1.423,-0.22 2.006,-0.585 l 38.735,45.24 h -44.863 l -15.131,-18.21 c 0.397,-0.6 0.631,-1.317 0.631,-2.091 0,-2.096 -1.699,-3.795 -3.795,-3.795 -2.096,0 -3.795,1.699 -3.795,3.795 0,2.096 1.699,3.795 3.795,3.795 0.71,0 1.366,-0.207 1.934,-0.546 l 15.571,18.738 h 49.315 z" id="path20" style="fill:none;fill-opacity:1"/>
		<path class="st0" d="m 323.217,209.507 c 0,-22.299 -18.141,-40.44 -40.44,-40.44 h -22.354 c -0.144,-1.965 -1.766,-3.519 -3.767,-3.519 -2.096,0 -3.795,1.699 -3.795,3.795 0,2.096 1.699,3.795 3.795,3.795 1.597,0 2.958,-0.989 3.518,-2.386 h 22.603 c 21.37,0 38.755,17.385 38.755,38.755 0,0.797 -0.025,1.593 -0.074,2.388 -0.082,1.308 -0.231,2.612 -0.446,3.905 -0.213,1.277 -0.491,2.543 -0.832,3.792 -0.338,1.237 -0.738,2.458 -1.198,3.656 -0.457,1.19 -0.973,2.358 -1.545,3.497 -0.569,1.135 -1.194,2.242 -1.872,3.315 -0.676,1.071 -1.403,2.11 -2.179,3.111 -0.775,1 -1.599,1.964 -2.467,2.885 -0.868,0.922 -1.781,1.802 -2.735,2.635 -0.955,0.836 -1.951,1.625 -2.983,2.364 -1.036,0.742 -2.108,1.433 -3.212,2.069 -1.11,0.64 -2.253,1.225 -3.421,1.752 -1.179,0.531 -2.385,1.003 -3.611,1.412 -1.241,0.414 -2.504,0.765 -3.781,1.05 -1.458,0.325 -2.933,0.535 -4.41,0.748 l 0.211,0.245 1.09,1.27 c 2.923,3.411 26.307,30.695 33.924,39.583 -0.468,0.631 -0.755,1.405 -0.755,2.252 0,2.096 1.699,3.795 3.795,3.795 2.096,0 3.795,-1.699 3.795,-3.795 0,-2.096 -1.699,-3.795 -3.795,-3.795 -0.638,0 -1.229,0.172 -1.757,0.45 L 290.619,249.99 c -0.224,-0.262 -0.423,-0.493 -0.599,-0.698 19.03,-3.475 33.197,-20.316 33.197,-39.785 z" id="path21" style="fill:none;fill-opacity:1"/>
	</g>
	<g id="g37" style="fill:none;fill-opacity:1">
		<path class="st0" d="m 146.958,358.253 c 2.402,-1.113 4.395,-2.93 6.006,-5.449 1.582,-2.52 2.373,-5.42 2.373,-8.701 0,-3.105 -0.674,-5.859 -2.051,-8.291 -1.377,-2.432 -3.311,-4.336 -5.801,-5.713 -2.52,-1.377 -5.479,-2.08 -8.906,-2.08 h -28.887 v 10.195 h 28.887 c 1.377,0 2.607,0.498 3.691,1.523 1.055,1.025 1.582,2.461 1.582,4.365 0,1.875 -0.498,3.311 -1.465,4.336 -0.996,1.025 -2.256,1.523 -3.809,1.523 h -28.887 v 25.664 h 11.484 v -15.469 h 14.092 l 9.229,15.469 h 1.014 12.141 48.311 V 365.43 h -54.586 z" id="path22" style="fill:none;fill-opacity:1"/>
		<rect x="163.511" y="346.73999" class="st0" width="37.294998" height="10.195" id="rect22" style="fill:none;fill-opacity:1"/>
		<rect x="163.511" y="328.01901" class="st0" width="42.451" height="10.195" id="rect23" style="fill:none;fill-opacity:1"/>
		<path class="st0" d="m 237.837,365.929 c -3.076,0 -5.947,-0.557 -8.613,-1.67 -2.637,-1.143 -4.805,-2.754 -6.416,-4.863 -1.611,-2.109 -2.432,-4.629 -2.432,-7.559 0,-2.959 0.82,-5.479 2.432,-7.588 1.612,-2.109 3.779,-3.721 6.416,-4.834 2.666,-1.143 5.537,-1.699 8.613,-1.699 3.105,0 5.977,0.557 8.643,1.67 2.637,1.113 4.775,2.725 6.416,4.834 1.611,2.08 2.432,4.629 2.432,7.617 0,3.076 -0.827,5.65 -2.471,7.734 l 8.064,7.698 c 1.465,-1.643 2.714,-3.558 3.753,-5.764 1.436,-2.959 2.139,-6.211 2.139,-9.668 0,-4.834 -1.318,-9.111 -3.926,-12.891 -2.607,-3.809 -6.123,-6.768 -10.488,-8.936 -4.395,-2.197 -9.229,-3.281 -14.561,-3.281 -5.303,0 -10.137,1.084 -14.531,3.281 -4.365,2.168 -7.881,5.127 -10.488,8.936 -2.607,3.779 -3.926,8.057 -3.926,12.891 0,4.805 1.318,9.082 3.926,12.891 2.607,3.779 6.123,6.768 10.488,8.936 4.395,2.168 9.229,3.252 14.531,3.252 3.913,0 7.484,-0.572 10.752,-1.697 l -9.746,-9.303 c -0.323,0.007 -0.65,0.013 -1.007,0.013 z" id="path23" style="fill:none;fill-opacity:1"/>
		<polygon class="st0" points="253.745,376.916 267.691,376.916 259.282,368.918 251.255,361.242 241.909,352.306 234.937,358.957 241.909,365.636 250.991,374.279 " id="polygon23" style="fill:none;fill-opacity:1"/>
		<rect x="388.50201" y="328.01901" class="st0" width="11.484" height="47.606998" id="rect24" style="fill:none;fill-opacity:1"/>
		<path class="st0" d="m 449.825,359.308 c -1.963,2.402 -4.219,4.102 -6.826,5.127 -2.607,0.996 -5.127,1.494 -7.529,1.494 -3.369,0 -6.357,-0.557 -8.965,-1.67 -2.637,-1.143 -4.688,-2.754 -6.182,-4.863 -1.494,-2.08 -2.256,-4.6 -2.256,-7.559 0,-2.959 0.762,-5.508 2.256,-7.588 1.494,-2.109 3.545,-3.721 6.182,-4.834 2.607,-1.143 5.596,-1.699 8.965,-1.699 3.018,0 5.771,0.586 8.232,1.816 2.49,1.201 4.541,2.842 6.182,4.893 l 7.324,-8.379 c -2.549,-2.842 -5.83,-5.127 -9.844,-6.797 -4.043,-1.67 -7.939,-2.52 -11.689,-2.52 -5.684,0 -10.664,1.084 -15,3.281 -4.336,2.168 -7.705,5.156 -10.166,8.936 -2.432,3.779 -3.662,8.086 -3.662,12.891 0,4.805 1.23,9.082 3.721,12.861 2.49,3.809 5.947,6.768 10.342,8.965 4.395,2.168 9.492,3.252 15.234,3.252 3.779,0 7.412,-0.732 10.928,-2.197 3.516,-1.494 6.914,-3.779 10.166,-6.943 z" id="path24" style="fill:none;fill-opacity:1"/>
		<polygon class="st0" points="370.159,361.271 370.159,375.627 381.643,375.627 381.643,328.019 370.159,328.019 " id="polygon24" style="fill:none;fill-opacity:1"/>
		<polygon class="st0" points="328.879,375.627 340.364,375.627 340.364,342.375 340.364,328.019 328.879,328.019 " id="polygon25" style="fill:none;fill-opacity:1"/>
		<polygon class="st0" points="367.78,374.755 367.78,358.465 342.742,328.924 342.742,345.183 " id="polygon26" style="fill:none;fill-opacity:1"/>
		<path class="st0" d="m 313.711,355.024 c 0.866,-0.082 1.546,-0.802 1.546,-1.69 0,-0.942 -0.764,-1.706 -1.706,-1.706 -0.942,0 -1.706,0.764 -1.706,1.706 0,0.716 0.443,1.327 1.068,1.58 -1.446,7.273 -7.794,12.577 -15.38,12.577 -8.651,0 -15.689,-7.038 -15.689,-15.689 0,-7.622 5.331,-13.975 12.642,-15.393 0.251,0.629 0.863,1.075 1.582,1.075 0.942,0 1.706,-0.764 1.706,-1.706 0,-0.942 -0.764,-1.706 -1.706,-1.706 -0.885,0 -1.604,0.677 -1.689,1.539 -7.71,1.473 -13.337,8.163 -13.337,16.191 0,9.093 7.398,16.492 16.492,16.492 7.991,0 14.676,-5.599 16.177,-13.27 z" id="path26" style="fill:none;fill-opacity:1"/>
		<path class="st0" d="m 320.553,344.951 c -0.011,0 -0.022,0.003 -0.033,0.003 -2.637,-8.825 -10.291,-15.479 -19.398,-16.863 -0.102,-0.845 -0.813,-1.501 -1.685,-1.501 -0.942,0 -1.706,0.764 -1.706,1.706 0,0.942 0.764,1.706 1.706,1.706 0.733,0 1.352,-0.464 1.594,-1.113 8.783,1.346 16.163,7.764 18.714,16.275 -0.532,0.289 -0.898,0.845 -0.898,1.494 0,0.942 0.764,1.706 1.706,1.706 0.942,0 1.706,-0.764 1.706,-1.706 0,-0.942 -0.764,-1.707 -1.706,-1.707 z" id="path27" style="fill:none;fill-opacity:1"/>
		<path class="st0" d="m 303.382,336.484 c 0.004,-0.048 0.014,-0.094 0.014,-0.143 0,-0.942 -0.764,-1.706 -1.706,-1.706 -0.942,0 -1.706,0.764 -1.706,1.706 0,0.942 0.764,1.706 1.706,1.706 0.608,0 1.139,-0.321 1.44,-0.8 4.208,1.635 7.511,5.016 9.045,9.261 -0.498,0.298 -0.835,0.837 -0.835,1.459 0,0.942 0.764,1.706 1.706,1.706 0.942,0 1.706,-0.764 1.706,-1.706 0,-0.942 -0.764,-1.706 -1.706,-1.706 -0.035,0 -0.068,0.008 -0.103,0.01 -1.612,-4.493 -5.106,-8.07 -9.561,-9.787 z" id="path28" style="fill:none;fill-opacity:1"/>
		<path class="st0" d="m 310.41,351.802 c 0,-6.044 -4.139,-11.161 -9.866,-12.521 -0.06,-0.887 -0.791,-1.591 -1.694,-1.591 -0.942,0 -1.706,0.764 -1.706,1.706 0,0.942 0.764,1.706 1.706,1.706 0.701,0 1.302,-0.423 1.564,-1.028 5.34,1.296 9.193,6.081 9.193,11.728 0,4.248 -2.23,8.137 -5.793,10.309 -0.313,-0.355 -0.765,-0.584 -1.276,-0.584 -0.942,0 -1.706,0.764 -1.706,1.706 0,0.942 0.764,1.706 1.706,1.706 0.942,0 1.706,-0.764 1.706,-1.706 0,-0.143 -0.023,-0.279 -0.056,-0.411 3.825,-2.312 6.222,-6.473 6.222,-11.02 z" id="path29" style="fill:none;fill-opacity:1"/>
		<path class="st0" d="m 320.435,355.745 c -0.942,0 -1.706,0.764 -1.706,1.706 0,0.671 0.391,1.246 0.955,1.524 -2.761,8.502 -10.33,14.776 -19.198,15.917 -0.2,-0.719 -0.853,-1.25 -1.636,-1.25 -0.942,0 -1.706,0.764 -1.706,1.706 0,0.942 0.764,1.706 1.706,1.706 0.893,0 1.617,-0.688 1.691,-1.562 9.113,-1.164 16.892,-7.613 19.722,-16.352 0.057,0.006 0.113,0.017 0.172,0.017 0.942,0 1.706,-0.764 1.706,-1.706 -0.001,-0.942 -0.764,-1.706 -1.706,-1.706 z" id="path30" style="fill:none;fill-opacity:1"/>
		<path class="st0" d="m 312.905,366.643 c 0.942,0 1.706,-0.764 1.706,-1.706 0,-0.942 -0.764,-1.706 -1.706,-1.706 -0.942,0 -1.706,0.764 -1.706,1.706 0,0.343 0.103,0.661 0.277,0.928 -1.121,1.1 -2.36,2.055 -3.707,2.855 -0.312,-0.344 -0.758,-0.564 -1.259,-0.564 -0.942,0 -1.706,0.764 -1.706,1.706 0,0.942 0.764,1.706 1.706,1.706 0.942,0 1.706,-0.764 1.706,-1.706 0,-0.152 -0.026,-0.296 -0.063,-0.437 1.423,-0.843 2.731,-1.85 3.911,-3.013 0.248,0.143 0.533,0.231 0.841,0.231 z" id="path31" style="fill:none;fill-opacity:1"/>
		<path class="st0" d="m 301.143,373.274 c 0.942,0 1.706,-0.764 1.706,-1.706 0,-0.942 -0.764,-1.706 -1.706,-1.706 -0.942,0 -1.706,0.764 -1.706,1.706 0,0.942 0.764,1.706 1.706,1.706 z" id="path32" style="fill:none;fill-opacity:1"/>
		<path class="st0" d="m 292.22,364.797 c 0.942,0 1.706,-0.764 1.706,-1.706 0,-0.942 -0.764,-1.706 -1.706,-1.706 -0.494,0 -0.935,0.213 -1.247,0.549 -3.392,-2.206 -5.513,-6.027 -5.513,-10.133 0,-2.753 0.912,-5.352 2.591,-7.472 0.242,0.131 0.514,0.212 0.808,0.212 0.942,0 1.706,-0.764 1.706,-1.706 0,-0.942 -0.764,-1.706 -1.706,-1.706 -0.942,0 -1.706,0.764 -1.706,1.706 0,0.356 0.11,0.687 0.297,0.96 -1.809,2.267 -2.792,5.053 -2.792,8.005 0,4.397 2.282,8.487 5.926,10.834 -0.041,0.146 -0.069,0.297 -0.069,0.456 -10e-4,0.944 0.763,1.707 1.705,1.707 z" id="path33" style="fill:none;fill-opacity:1"/>
		<path class="st0" d="m 291.047,372.775 c -0.613,0 -1.145,0.326 -1.446,0.811 -9.054,-3.301 -15.248,-12.032 -15.248,-21.783 0,-9.249 5.527,-17.59 13.909,-21.25 0.309,0.436 0.815,0.722 1.39,0.722 0.942,0 1.706,-0.764 1.706,-1.706 0,-0.942 -0.764,-1.706 -1.706,-1.706 -0.942,0 -1.706,0.764 -1.706,1.706 0,0.081 0.013,0.158 0.024,0.236 -8.688,3.78 -14.419,12.417 -14.419,21.997 0,10.099 6.421,19.14 15.804,22.547 -0.003,0.044 -0.013,0.086 -0.013,0.131 0,0.942 0.764,1.706 1.706,1.706 0.942,0 1.706,-0.764 1.706,-1.706 -0.002,-0.942 -0.765,-1.705 -1.707,-1.705 z" id="path34" style="fill:none;fill-opacity:1"/>
		<path class="st0" d="m 280.62,360.611 c -0.942,0 -1.706,0.764 -1.706,1.706 0,0.942 0.764,1.706 1.706,1.706 0.216,0 0.421,-0.044 0.611,-0.118 3.847,5.272 9.896,8.378 16.5,8.378 0.579,0 1.164,-0.025 1.74,-0.073 l -0.067,-0.799 c -0.553,0.047 -1.116,0.07 -1.672,0.07 -6.338,0 -12.145,-2.978 -15.842,-8.035 0.268,-0.301 0.436,-0.694 0.436,-1.129 0,-0.942 -0.764,-1.706 -1.706,-1.706 z" id="path35" style="fill:none;fill-opacity:1"/>
		<path class="st0" d="m 312.816,336.924 c -0.942,0 -1.706,0.764 -1.706,1.706 0,0.942 0.764,1.706 1.706,1.706 0.259,0 0.502,-0.062 0.722,-0.165 2.485,3.365 3.84,7.448 3.84,11.665 0,2.533 -0.476,4.975 -1.402,7.285 -0.099,-0.018 -0.201,-0.031 -0.305,-0.031 -0.942,0 -1.706,0.764 -1.706,1.706 0,0.942 0.764,1.706 1.706,1.706 0.942,0 1.706,-0.764 1.706,-1.706 0,-0.55 -0.264,-1.033 -0.668,-1.345 0.973,-2.414 1.473,-4.966 1.473,-7.615 0,-4.401 -1.418,-8.661 -4.018,-12.168 0.222,-0.288 0.359,-0.644 0.359,-1.036 -0.001,-0.944 -0.765,-1.708 -1.707,-1.708 z" id="path36" style="fill:none;fill-opacity:1"/>
		<path class="st0" d="m 308.589,333.274 c -0.482,0 -0.915,0.201 -1.225,0.522 -2.952,-1.579 -6.249,-2.409 -9.633,-2.409 -11.275,0 -20.448,9.173 -20.448,20.448 0,0.827 0.054,1.653 0.153,2.471 -0.642,0.245 -1.099,0.862 -1.099,1.589 0,0.942 0.764,1.706 1.706,1.706 0.942,0 1.706,-0.764 1.706,-1.706 0,-0.877 -0.664,-1.591 -1.516,-1.686 -0.094,-0.785 -0.146,-1.579 -0.146,-2.374 0,-10.833 8.813,-19.646 19.646,-19.646 3.242,0 6.401,0.794 9.231,2.302 -0.047,0.156 -0.079,0.317 -0.079,0.488 0,0.942 0.764,1.706 1.706,1.706 0.942,0 1.706,-0.764 1.706,-1.706 0,-0.942 -0.766,-1.705 -1.708,-1.705 z" id="path37" style="fill:none;fill-opacity:1"/>
	</g>
</g>
</svg>
